# xmcd CD database file
#
# Track frame offsets:
#	150
#	19700
#	38075
#
# Disc length: 771 seconds
#
# Revision: 0
# Processed by: cddbd v1.5PL3 Copyright (c) Steve Scherf et al.
# Submitted via: CdAid (MTCDDB.DLL V2003.12.21)
#
DISCID=18030103
DTITLE=Chocolate Starfish - Four Letter Word
DYEAR=1994
DGENRE=Rock
TTITLE0=Four Letter Word
TTITLE1=Sway Up (Acoustic)
TTITLE2=Ten Feet Tall (Acoustic Version)
EXTD=YEAR: 1999 ID3G:  17
EXTT0=
EXTT1=
EXTT2=
PLAYORDER=
